<svg xmlns="http://www.w3.org/2000/svg" xmlns:xlink="http://www.w3.org/1999/xlink" viewBox="0 0 1000 1000">
  <circle id="rond" cx="500" cy="500" r="500" fill="#f7303c"/>
  <path id="shadow1" d="M989.208 601.25l-182.64-269.377-59.197 2.045-96.54-143.612-95.59 38.59-34.98-43.87-92.4 46.987-1.94 38.177 46.73 76.232L159.87 473.2l-25.5 103.112 272.173 414.784c.223.044.444.078.667.12l31.277 4.894c256.572 32.01 497.754-138.485 550.72-394.86" fill="#ce3039"/>
  <g clip-path="url(#b)">
    <defs>
      <path id="i" d="M603.07 737.063l-18.654 58.854-40.203-97.77-43.17 25.492-15.2-24.36-91.4 1.54-.71 189.51L526.3 999.29c90.577-4.737 176.538-34.142 249.76-82.73L634.083 696.97l-31.012 40.093z"/>
    </defs>
    <clipPath id="k">
      <use xlink:href="#i" overflow="visible"/>
    </clipPath>
    <defs>
      <filter id="j" filterUnits="userSpaceOnUse" x="219.729" y="512.931" width="687.146" height="670.612">
        <feColorMatrix values="1 0 0 0 0 0 1 0 0 0 0 0 1 0 0 0 0 0 1 0"/>
      </filter>
    </defs>
    <mask maskUnits="userSpaceOnUse" x="219.729" y="512.931" width="687.146" height="670.612" id="m">
      <g filter="url(#j)">
        <linearGradient id="l" gradientUnits="userSpaceOnUse" x1="177.5" y1="823.545" x2="179.045" y2="823.545" gradientTransform="rotate(-30 351384.077 -17603.17) scale(214.9664)">
          <stop offset="0"/>
          <stop offset="1" stop-color="#fff"/>
        </linearGradient>
        <path clip-path="url(#k)" fill="url(#l)" d="M219.73 772.71l449.95-259.78 237.195 410.834-449.95 259.78z"/>
      </g>
    </mask>
    <linearGradient id="n" gradientUnits="userSpaceOnUse" x1="177.5" y1="823.545" x2="179.045" y2="823.545" gradientTransform="rotate(-30 351384.077 -17603.17) scale(214.9664)">
      <stop offset="0" stop-color="#ce3039"/>
      <stop offset="1" stop-color="#c43339"/>
    </linearGradient>
    <path clip-path="url(#k)" mask="url(#m)" fill="url(#n)" d="M219.73 772.71l449.95-259.78 237.195 410.834-449.95 259.78z"/>
  </g>
  <path id="ouifm" d="M389.852 364.197V337.32c2.907 0 5.758.027 8.607-.005 31.6-.366 63.2-.738 94.81-1.114 3.14-.03 6.28-.05 9.43-.16 1.43-.05 2.05.3 2.06 1.92.09 18.15.21 36.29.39 54.43.14 14.1.38 28.19.56 42.28.21 17.04.4 34.08.62 51.11.17 12.93.18 25.87.68 38.79.21 5.58 1.75 10.99 4.4 16.09 6.48 12.44 19.19 16.67 31.2 15.06 3.8-.51 7.65-1.7 11.11-3.36 5.69-2.73 9.53-7.48 12.22-13.22 3.04-6.49 3.79-13.34 3.69-20.38-.22-15.95-.42-31.89-.6-47.84-.33-28.68-.65-57.36-.97-86.04-.17-15.95-.3-31.9-.5-47.85-.02-1.31.31-1.8 1.7-1.82 35.77-.39 71.55-.83 107.33-1.26.59 0 1.19.07 2.28.14 0 5.84-.05 11.56.01 17.29.18 16.91.42 33.8.62 50.71.24 21.56.49 43.12.69 64.68.17 18.14.18 36.29.48 54.42.19 11.13-.23 22.14-2.5 33.08-2.18 10.49-5.27 20.68-9.77 30.37-2.83 6.1-5.89 12.14-10.19 17.42-3.89 4.78-7.53 9.78-11.66 14.33-2.86 3.15-6.34 5.76-9.62 8.5-2.29 1.92-4.56 3.94-7.13 5.43-6.3 3.66-12.6 7.39-19.19 10.47-10.87 5.07-22.37 8.16-34.19 10.37-18.43 3.44-36.96 4.29-55.59 2.98-7.75-.54-15.45-1.94-23.15-3.1-9.09-1.36-17.79-4.13-26.41-7.3-8.75-3.21-17.05-7.32-24.74-12.48-5.47-3.67-10.39-8.18-15.54-12.32-.9-.72-.93-1.26-.07-2.31 5.4-6.57 10.56-13.33 14.39-20.98 3.42-6.82 7.12-13.55 9.87-20.64 2.54-6.52 4.25-13.41 5.88-20.25 4.24-17.86 5.14-36.02 3.89-54.27-.78-11.38-1.75-22.8-5.05-33.82-2.25-7.51-4.36-15.09-7.17-22.4-2.46-6.4-5.53-12.62-8.85-18.63-2.59-4.68-5.93-8.95-9.01-13.36-1.67-2.39-3.49-4.68-5.58-6.81 2.06 3.77 4.26 7.46 6.15 11.31 2.1 4.28 4.12 8.63 5.8 13.08 2.04 5.42 3.93 10.92 5.48 16.49 2.91 10.49 5.17 21.13 5.62 32.05.4 9.56.86 19.14.7 28.71-.19 11.09-1.16 22.17-4.23 32.91-2.12 7.41-4.14 14.89-6.88 22.07-2.53 6.6-5.69 13.01-9.11 19.2-2.68 4.87-5.96 9.45-9.38 13.85-4.17 5.38-8.56 10.6-13.21 15.57-3.54 3.78-7.49 7.19-11.48 10.5-3.97 3.3-8.04 6.55-12.38 9.32-5.79 3.69-11.79 7.09-17.87 10.27-10.89 5.71-22.54 9.45-34.47 12.23-19.17 4.48-38.63 6.12-58.27 5.11-15.12-.77-30.04-2.88-44.68-7-10.09-2.84-19.95-6.19-29.29-10.95-5.34-2.72-10.77-5.33-15.85-8.48-5.03-3.11-9.74-6.75-14.47-10.31-3.47-2.61-6.91-5.29-10.06-8.25-3.17-2.97-6.09-6.22-8.88-9.55-3.41-4.06-6.82-8.15-9.77-12.55-3.13-4.67-5.85-9.64-8.51-14.61-2.02-3.77-3.81-7.69-5.42-11.66-1.82-4.49-3.6-9.02-4.93-13.67-3.2-11.13-5.23-22.5-6.47-34.01-2.03-18.83-1.65-37.55 1.75-56.22 1.64-8.97 3.68-17.8 7.18-26.23 2.69-6.48 5.39-12.99 8.68-19.17 2.71-5.08 6.09-9.83 9.54-14.47 3.44-4.64 7.04-9.23 11.09-13.34 5.25-5.33 10.85-10.36 16.63-15.12 4.07-3.35 8.6-6.19 13.1-8.95 5.52-3.39 11.17-6.57 16.88-9.64a73.332 73.332 0 0 1 9.91-4.41c6.87-2.46 13.75-5.03 20.79-6.9 9.1-2.42 18.31-4.63 27.78-5.21 9.42-.57 18.84-1.32 28.27-1.48 6.81-.11 13.65.58 20.47.98 11.03.64 21.87 2.67 32.46 5.67 7.72 2.19 15.33 4.94 22.74 8.06 5.88 2.48 11.39 5.84 17.02 8.9 2.67 1.45 5.22 3.11 7.99 4.78M283.16 435.7c-14.22-.16-25.692 4.44-35.913 12.13-4.87 3.66-8.938 8.27-12.51 13.334-4.005 5.666-6.89 11.792-8.757 18.382-3.49 12.315-3.41 24.67.31 36.96 1.73 5.703 4.13 11.113 7.54 16.02 1.55 2.22 3.18 4.42 5.04 6.373 3.03 3.18 5.98 6.55 9.49 9.13 5.66 4.15 11.86 7.38 18.79 9.22 7.78 2.08 15.55 3 23.516 1.68 7.46-1.23 14.64-3.37 21.11-7.4 2.82-1.75 5.46-3.81 8.093-5.85 4.89-3.78 8.89-8.45 12.11-13.65 4.06-6.57 7.01-13.61 8.58-21.31 2.17-10.66 1.66-21.13-1.24-31.45-1.98-7.04-5.28-13.54-9.69-19.49-6.46-8.73-14.57-15.42-24.5-19.59-7.31-3.07-15-5.25-21.97-4.53m527.15 211.6c-6.44 0-12.66-.07-18.88.01-30.03.37-60.06.78-90.09 1.19-2.82.04-2.82.06-2.86-2.72-.56-42.94-1.13-85.87-1.69-128.8-.39-29.79-.83-59.57-1.16-89.36-.34-30.95-.56-61.91-.82-92.86-.01-.4.05-.8.08-1.38l111.64-1.48c1.25 105.1 2.5 210.01 3.77 315.38M536.68 226.42c-.417 36.35-29.37 64-64.1 63.88-36.535-.13-64.618-29.674-63.985-65.017.64-35.753 29.217-63.082 63.874-63.058 36.89.023 64.15 29.6 64.21 64.19m60.25-64.193c-26.65-.018-49.68 16.138-59.21 39.85 6.38 9.475 10.19 21.424 10.19 34.425 0 8.756-1.73 17.037-4.81 24.41 11.24 17.537 30.89 29.31 53.92 29.39 34.73.12 63.68-27.53 64.1-63.884-.06-34.592-27.32-64.167-64.21-64.192zm-199.79 729.36l-2.71-190.747 91.4-1.546.02 28.6-58.17.96.58 48.89 43.87-.78.39 28.6-43.87.58 1.54 84.65-33.04.77zM634.08 696.97l3.285 190.36-28.61.193L606 738.907h-.34L578.8 888.102l-16.235.387-31.74-148.65-.774.02 2.76 149-28.41.38-3.17-190.55 42.98-.56 24.94 112.33h.53l21.5-112.74 42.91-.77z" fill="#fff"/>
</svg>